HIERARCHY
ROOT hip
{
  OFFSET 0 0 0
  CHANNELS 6 Xposition Yposition Zposition Zrotation Yrotation Xrotation
  JOINT abdomen
  {
    OFFSET 0 20.6881 -0.73152
    CHANNELS 3 Zrotation Xrotation Yrotation
    JOINT chest
    {
      OFFSET 0 11.7043 -0.48768
      CHANNELS 3 Zrotation Xrotation Yrotation
      JOINT neck
      {
        OFFSET 0 22.1894 -2.19456
        CHANNELS 3 Zrotation Xrotation Yrotation
        JOINT head
        {
          OFFSET -0.24384 7.07133 1.2192
          CHANNELS 3 Zrotation Xrotation Yrotation
          JOINT leftEye
          {
            OFFSET 4.14528 8.04674 8.04672
            CHANNELS 3 Zrotation Xrotation Yrotation
            End Site
            {
              OFFSET 1 0 0
            }
          }
          JOINT rightEye
          {
            OFFSET -3.6576 8.04674 8.04672
            CHANNELS 3 Zrotation Xrotation Yrotation
            End Site
            {
              OFFSET 1 0 0
            }
          }
        }
      }
      JOINT rCollar
      {
        OFFSET -2.68224 19.2634 -4.8768
        CHANNELS 3 Zrotation Xrotation Yrotation
        JOINT rShldr
        {
          OFFSET -8.77824 -1.95073 1.46304
          CHANNELS 3 Zrotation Xrotation Yrotation
          JOINT rForeArm
          {
            OFFSET -28.1742 -1.7115 0.48768
            CHANNELS 3 Zrotation Xrotation Yrotation
            JOINT rHand
            {
              OFFSET -22.5879 0.773209 7.07136
              CHANNELS 3 Zrotation Xrotation Yrotation
              JOINT rThumb1
              {
                OFFSET -1.2192 -0.487915 3.41376
                CHANNELS 3 Zrotation Xrotation Yrotation
                JOINT rThumb2
                {
                  OFFSET -3.37035 -0.52449 3.41376
                  CHANNELS 3 Zrotation Xrotation Yrotation
                  End Site
                  {
                    OFFSET -1.78271 -1.18214 1.43049
                  }
                }
              }
              JOINT rIndex1
              {
                OFFSET -7.75947 0.938293 5.60832
                CHANNELS 3 Zrotation Xrotation Yrotation
                JOINT rIndex2
                {
                  OFFSET -2.54057 -0.884171 1.56538
                  CHANNELS 3 Zrotation Xrotation Yrotation
                  End Site
                  {
                    OFFSET -1.62519 -0.234802 1.16502
                  }
                }
              }
              JOINT rMid1
              {
                OFFSET -8.24714 1.18213 3.41376
                CHANNELS 3 Zrotation Xrotation Yrotation
                JOINT rMid2
                {
                  OFFSET -3.10165 -0.590103 1.0647
                  CHANNELS 3 Zrotation Xrotation Yrotation
                  End Site
                  {
                    OFFSET -2.48547 -0.328903 0.83742
                  }
                }
              }
              JOINT rRing1
              {
                OFFSET -8.82822 0.546677 1.51678
                CHANNELS 3 Zrotation Xrotation Yrotation
                JOINT rRing2
                {
                  OFFSET -2.60934 -0.819778 -0.0198488
                  CHANNELS 3 Zrotation Xrotation Yrotation
                  End Site
                  {
                    OFFSET -2.33842 -0.294052 0.168128
                  }
                }
              }
              JOINT rPinky1
              {
                OFFSET -8.27202 -0.0477905 -0.4584
                CHANNELS 3 Zrotation Xrotation Yrotation
                JOINT rPinky2
                {
                  OFFSET -1.82734 -0.647385 -0.700984
                  CHANNELS 3 Zrotation Xrotation Yrotation
                  End Site
                  {
                    OFFSET -1.69225 -0.51767 -0.607171
                  }
                }
              }
            }
          }
        }
      }
      JOINT lCollar
      {
        OFFSET 2.68224 19.2634 -4.8768
        CHANNELS 3 Zrotation Xrotation Yrotation
        JOINT lShldr
        {
          OFFSET 8.77824 -1.95073 1.46304
          CHANNELS 3 Zrotation Xrotation Yrotation
          JOINT lForeArm
          {
            OFFSET 28.1742 -1.7115 0.48768
            CHANNELS 3 Zrotation Xrotation Yrotation
            JOINT lHand
            {
              OFFSET 22.5879 0.773209 7.07136
              CHANNELS 3 Zrotation Xrotation Yrotation
              JOINT lThumb1
              {
                OFFSET 1.2192 -0.487915 3.41376
                CHANNELS 3 Zrotation Xrotation Yrotation
                JOINT lThumb2
                {
                  OFFSET 3.37035 -0.52449 3.41376
                  CHANNELS 3 Zrotation Xrotation Yrotation
                  End Site
                  {
                    OFFSET 1.78271 -1.18214 1.43049
                  }
                }
              }
              JOINT lIndex1
              {
                OFFSET 7.75947 0.938293 5.60832
                CHANNELS 3 Zrotation Xrotation Yrotation
                JOINT lIndex2
                {
                  OFFSET 2.54057 -0.884171 1.56538
                  CHANNELS 3 Zrotation Xrotation Yrotation
                  End Site
                  {
                    OFFSET 1.62519 -0.234802 1.16502
                  }
                }
              }
              JOINT lMid1
              {
                OFFSET 8.24714 1.18213 3.41376
                CHANNELS 3 Zrotation Xrotation Yrotation
                JOINT lMid2
                {
                  OFFSET 3.10165 -0.590103 1.0647
                  CHANNELS 3 Zrotation Xrotation Yrotation
                  End Site
                  {
                    OFFSET 2.48547 -0.328903 0.83742
                  }
                }
              }
              JOINT lRing1
              {
                OFFSET 8.82822 0.546677 1.51678
                CHANNELS 3 Zrotation Xrotation Yrotation
                JOINT lRing2
                {
                  OFFSET 2.60934 -0.819778 -0.0198488
                  CHANNELS 3 Zrotation Xrotation Yrotation
                  End Site
                  {
                    OFFSET 2.33842 -0.294052 0.168128
                  }
                }
              }
              JOINT lPinky1
              {
                OFFSET 8.27202 -0.0477905 -0.4584
                CHANNELS 3 Zrotation Xrotation Yrotation
                JOINT lPinky2
                {
                  OFFSET 1.82734 -0.647385 -0.700984
                  CHANNELS 3 Zrotation Xrotation Yrotation
                  End Site
                  {
                    OFFSET 1.69225 -0.51767 -0.607171
                  }
                }
              }
            }
          }
        }
      }
    }
  }
  JOINT rButtock
  {
    OFFSET -8.77824 4.35084 1.2192
    CHANNELS 3 Zrotation Xrotation Yrotation
    JOINT rThigh
    {
      OFFSET 0 -1.70687 -2.19456
      CHANNELS 3 Zrotation Xrotation Yrotation
      JOINT rShin
      {
        OFFSET 0 -36.8199 0.73152
        CHANNELS 3 Zrotation Xrotation Yrotation
        JOINT rFoot
        {
          OFFSET 0.73152 -45.1104 -5.12064
          CHANNELS 3 Zrotation Xrotation Yrotation
          End Site
          {
            OFFSET -1.1221 -3.69964 12.103
          }
        }
      }
    }
  }
  JOINT lButtock
  {
    OFFSET 8.77824 4.35084 1.2192
    CHANNELS 3 Zrotation Xrotation Yrotation
    JOINT lThigh
    {
      OFFSET 0 -1.70687 -2.19456
      CHANNELS 3 Zrotation Xrotation Yrotation
      JOINT lShin
      {
        OFFSET 0 -36.8199 0.73152
        CHANNELS 3 Zrotation Xrotation Yrotation
        JOINT lFoot
        {
          OFFSET -0.73152 -45.1104 -5.12064
          CHANNELS 3 Zrotation Xrotation Yrotation
          End Site
          {
            OFFSET 1.1221 -3.69964 12.103
          }
        }
      }
    }
  }
}
MOTION
Frames:	4
Frame Time:	0.03333
11.6799 68.4268 46.0622 2.4809 1.741768 2.751667 -9.243649 8.315121 -96.764502 7.468 5.285479 78.044455 -14.921212 29.912326 -53.544926 32.679711 -7.707966 -1.74357 -0.050604 0.000936 -2.119962 4.78322 -0.352862 -8.43336 5.249072 -88.576572 -17.380994 -78.751653 -41.40154 -78.206008 178.592081 -3.000376 -140.036018 -6.725728 31.875993 -1.79188 98.367578 -55.507218 47.387389 -124.50205 12.363158 99.484629 -142.66025 3.04798 109.270422 -11.927306 28.016463 6.507608 -124.474001 46.32286 109.897552 -7.02001 13.575364 5.466459 -0.72325 3.506144 0.870946 -171.917617 -27.547076 171.68133 -150.734301 15.209345 -135.161963 80.823658 62.229426 -51.742998 -5.128461 -44.099658 7.515913 95.369025 -19.50542 138.634093 -3.053164 -9.295318 64.499621 -157.954105 -35.726232 -137.990113 -5.852275 -3.814784 -2.143273 125.613206 2.112452 -98.572614 169.253497 -43.878671 -116.550538 151.79539 4.871279 -119.064586 -10.38733 -19.78609 0.854766 166.84428 4.192532 -134.3969 -10.002269 -4.379349 -10.702708 42.798997 -57.515856 49.451017 -17.449438 43.656413 -8.638368 2.728481 37.991908 -10.566751 -13.510296 1.943571 -20.248487 13.766329 -62.522501 -0.0 -12.074937 72.790515 109.513331 -158.121043 -75.135983 104.506158 171.583549 75.085447 18.355183 104.757315 84.60559 -180.0 32.178734 -1.941242 -99.650812 -99.46918 -60.246605 -24.925003
12.204600000000001 68.3971 46.4105 2.612512 1.824651 2.523593 -11.756943 11.138255 -0.0 6.8134 -10.527743 -16.862899 7.912109 38.444891 129.312832 -26.245758 33.442545 173.850128 0.58191 -0.009807 -1.931117 6.893229 -0.769156 -12.718558 -140.910719 37.028093 145.864937 96.78337 -35.825603 110.310429 22.61589 -35.938118 53.50516 -10.536712 43.493138 -0.973151 -83.049864 42.671898 42.100782 -90.061194 1.975063 51.181964 -173.696818 -34.806014 113.995817 -5.981283 20.52222 -0.952274 4.771564 -18.538056 3.271312 7.507913 0.0642 1.596049 -2.693217 -10.43 -1.185804 -81.670794 77.711633 88.10342 -94.292595 -43.039157 -89.769354 -127.296897 14.701287 -142.696863 -5.504824 -62.080807 10.854133 -81.328876 28.683944 58.145409 2.01609 4.938841 -32.20521 5.629694 28.715442 -1.009285 169.613749 -7.678871 -87.352773 31.382653 -16.085911 -11.625006 84.219096 38.163034 -69.40716 -176.317708 -30.563721 -105.371494 6.967763 26.26524 -8.985345 144.177883 51.822693 -119.559382 135.120999 -3.973042 -170.341481 150.519342 -38.905502 -160.777644 26.358868 -36.667724 27.467648 19.826533 -56.307363 23.860948 -106.440107 70.964991 -46.197822 138.914811 1.857881 0.627535 -63.401646 51.545653 -14.21763 10.795219 61.156259 87.876583 37.379077 3.250595 17.27836 -27.782076 19.956265 57.063646 29.425527 12.255278 -82.619202 -25.869826 -60.467998 32.329455
12.651399999999999 68.3751 46.5082 2.319275 1.745544 3.344586 -11.09938 10.635885 -0.0 6.297577 -10.437113 -16.357672 -8.326618 25.38335 -28.569391 18.925812 -21.125328 -26.846999 1.97756 -0.049426 -2.863154 5.948973 -0.614424 -11.783069 7.442082 -62.004672 -10.345785 -159.198873 9.995333 -136.740743 56.456825 78.466177 -130.05297 166.630847 -14.715827 140.049355 -9.009559 4.203693 -3.444321 -38.021847 8.826266 38.018225 -165.7173 -22.116562 111.874804 -155.02379 5.536216 111.164156 122.21941 -73.823032 94.222697 -9.850493 42.008207 5.85524 -148.289262 -0.760243 176.544149 -153.036602 -6.389125 179.007228 -77.25751 -47.08121 -74.365269 30.257611 55.729175 19.225643 8.433228 -86.009983 28.880545 6.221117 -8.484771 60.942733 -15.385501 -81.379971 54.856581 -159.465371 -34.308253 -139.44433 -53.335944 -38.443335 -15.706871 100.403056 28.656252 -66.279521 -11.664714 -21.908427 0.45408 121.898644 26.211088 -105.008817 -22.325396 -42.575444 -0.186858 175.909607 -12.526299 -131.781272 66.839534 62.471758 -95.880575 -1.447443 -50.72221 36.607962 -0.188393 -2.647122 5.030784 146.283578 51.171443 170.177946 -36.831742 17.162671 -39.808551 73.114765 -48.990546 -41.196259 -73.153032 -3.349094 34.877218 132.218729 40.061928 -43.742869 0.237067 1.344764 -9.998856 3.469607 12.36809 -0.676618 -22.347338 39.748565 -125.905775 21.750419 43.165654 176.889833
13.0609 68.5322 46.4397 1.902321 2.008385 4.145316 -7.883936 7.496449 -92.212742 7.547653 3.676255 74.957478 -10.275379 36.7797 -102.05583 37.56748 14.570144 39.426266 2.620535 -0.123206 -5.382698 5.070518 -0.649215 -14.583328 -148.40079 20.317965 155.206376 -56.474452 16.076818 39.340492 -82.918377 -32.126203 -114.894713 46.543529 -58.814479 29.76784 -7.442682 1.185605 -4.054404 -56.229075 12.573678 51.632557 -168.474636 -21.801205 109.334091 -161.901145 -3.118775 112.680954 35.247081 -62.30832 16.731137 -31.736205 62.204484 30.744531 -4.118526 -1.154683 5.803132 13.619258 -0.03844 -4.792435 -138.864826 -2.068756 -132.638009 -161.127186 49.101438 -125.656085 11.917528 34.191316 -13.41707 -73.693511 2.509535 -37.550545 -8.951372 -22.230155 -35.477953 11.641537 41.691535 -4.190884 179.608532 -16.450211 -85.353927 -52.687886 -64.968798 -31.372526 4.809114 -1.404126 -3.521976 9.133398 34.703066 -19.098404 163.519062 -34.912392 -141.401583 -1.509855 30.782575 -14.921495 61.842003 63.655023 -91.700814 131.715232 -33.2969 162.182462 26.36545 -36.145469 28.644821 -1.155559 -25.173772 0.698844 -37.201639 17.887081 -40.536004 75.102899 -50.282855 -180.0 80.739268 -45.184538 68.626849 -117.558458 -12.22888 169.322604 -28.302847 11.253249 -30.374679 28.945923 15.422636 -180.0 24.412132 -26.710033 -145.866899 30.617789 -7.507521 45.726866
